<svg width="62" height="25" viewBox="0 0 62 25" fill="none" xmlns="http://www.w3.org/2000/svg">
<rect width="62" height="25" rx="12.5" fill="#142850"/>
<path d="M21.0625 18H13.0391V16.0938L16.6875 12.3203C17.151 11.8151 17.4818 11.3776 17.6797 11.0078C17.8776 10.638 17.9766 10.3255 17.9766 10.0703C17.9766 9.17448 17.6016 8.72656 16.8516 8.72656C16.4766 8.72656 16.1771 8.88542 15.9531 9.20312C15.7344 9.51562 15.625 9.90104 15.625 10.3594H12.8047C12.8047 9.64583 12.9766 8.99479 13.3203 8.40625C13.6693 7.8125 14.151 7.34115 14.7656 6.99219C15.3854 6.63802 16.1042 6.46094 16.9219 6.46094C18.2031 6.46094 19.1693 6.75521 19.8203 7.34375C20.4766 7.92708 20.8047 8.75 20.8047 9.8125C20.8047 10.3594 20.6953 10.8724 20.4766 11.3516C20.2578 11.8255 19.9427 12.3099 19.5312 12.8047C19.1198 13.2943 18.6224 13.8359 18.0391 14.4297L16.7344 15.7344H21.0625V18ZM30.3594 13.3828C30.3594 14.4609 30.1875 15.3542 29.8438 16.0625C29.5052 16.7656 29.0339 17.2917 28.4297 17.6406C27.8307 17.9844 27.1406 18.1562 26.3594 18.1562C25.5729 18.1562 24.875 17.9844 24.2656 17.6406C23.6615 17.2917 23.1875 16.7656 22.8438 16.0625C22.5052 15.3542 22.3359 14.4609 22.3359 13.3828V11.25C22.3359 10.1719 22.5052 9.28125 22.8438 8.57812C23.1823 7.86979 23.6536 7.34115 24.2578 6.99219C24.862 6.64323 25.5573 6.46875 26.3438 6.46875C27.125 6.46875 27.8177 6.64323 28.4219 6.99219C29.026 7.34115 29.5 7.86979 29.8438 8.57812C30.1875 9.28125 30.3594 10.1719 30.3594 11.25V13.3828ZM27.5391 10.8828C27.5391 10.0599 27.4297 9.4974 27.2109 9.19531C26.9974 8.89323 26.7083 8.74219 26.3438 8.74219C25.9792 8.74219 25.6875 8.89323 25.4688 9.19531C25.2552 9.4974 25.1484 10.0599 25.1484 10.8828V13.7422C25.1484 14.5807 25.2552 15.1484 25.4688 15.4453C25.6875 15.7422 25.9844 15.8906 26.3594 15.8906C26.7188 15.8906 27.0052 15.7422 27.2188 15.4453C27.4323 15.1484 27.5391 14.5807 27.5391 13.7422V10.8828ZM39.6875 18H31.6641V16.0938L35.3125 12.3203C35.776 11.8151 36.1068 11.3776 36.3047 11.0078C36.5026 10.638 36.6016 10.3255 36.6016 10.0703C36.6016 9.17448 36.2266 8.72656 35.4766 8.72656C35.1016 8.72656 34.8021 8.88542 34.5781 9.20312C34.3594 9.51562 34.25 9.90104 34.25 10.3594H31.4297C31.4297 9.64583 31.6016 8.99479 31.9453 8.40625C32.2943 7.8125 32.776 7.34115 33.3906 6.99219C34.0104 6.63802 34.7292 6.46094 35.5469 6.46094C36.8281 6.46094 37.7943 6.75521 38.4453 7.34375C39.1016 7.92708 39.4297 8.75 39.4297 9.8125C39.4297 10.3594 39.3203 10.8724 39.1016 11.3516C38.8828 11.8255 38.5677 12.3099 38.1562 12.8047C37.7448 13.2943 37.2474 13.8359 36.6641 14.4297L35.3594 15.7344H39.6875V18ZM46.9609 18H44.1406V9.94531L41.6016 10.625V8.41406L46.7031 6.63281H46.9609V18Z" fill="white"/>
</svg>
